<svg width="245" height="46" viewBox="0 0 245 46" fill="none" xmlns="http://www.w3.org/2000/svg">
<path d="M10.0839 4.38924C16.3214 2.56841 25.9615 11.9116 25.9615 11.9116C25.9615 11.9116 33.2891 3.38403 41.8391 4.38924C52.1949 5.60643 49.8678 19.3668 48.9745 24.9564C53.1438 18.3861 52.3058 10.1627 51.5641 7.92466C50.5568 4.88143 48.0199 2.33716 44.9167 1.3882C34.2443 -1.87586 25.9615 6.3283 25.9615 6.3283C25.9615 6.3283 15.849 -2.75295 7.05423 0.841844C-0.150982 3.78664 -4.16296 14.2642 6.67089 22.7819C13.748 28.3455 20.1329 31.2658 25.2891 40.2096C24.3771 33.2293 15.787 26.6851 9.87142 22.034C0.834956 14.9288 3.84641 6.20955 10.0839 4.38924Z" fill="#00C0FF"/>
<path d="M33.6344 33.6981C39.3532 27.482 42.4547 21.2116 43.0964 16.7444C45.8756 24.0752 41.4449 36.6882 29.0271 45.259C30.5495 37.5778 24.0839 25.8533 10.41 19.4127C28.6016 23.4793 33.6344 33.6981 33.6344 33.6981Z" fill="#043570"/>
<path d="M37.161 22.5538C37.161 24.6658 35.4277 26.3778 33.2896 26.3778C31.1511 26.3778 29.4178 24.6658 29.4178 22.5538C29.4178 20.4418 31.1511 18.7299 33.2896 18.7299C35.4277 18.7299 37.161 20.4418 37.161 22.5538Z" fill="#043570"/>
<path d="M72.2361 27.6691H72.3424L79.7195 8.03994H85.1528V33.5587H80.8945V15.2254L80.7903 15.2087L73.7611 33.5587H70.8341L63.6841 14.8587L63.5778 14.8941V33.5587H59.3195V8.03994H64.9111L72.2361 27.6691Z" fill="#043570"/>
<path d="M101.519 33.5587C101.366 33.0795 101.24 32.6123 101.14 32.1566C101.041 31.7014 100.975 31.2457 100.94 30.7899C100.368 31.6774 99.6027 32.4227 98.6444 33.0254C97.6861 33.6264 96.6173 33.9274 95.4382 33.9274C93.4632 33.9274 91.9465 33.4191 90.8882 32.4024C89.8309 31.3858 89.3027 29.9894 89.3027 28.2129C89.3027 26.3785 90.0267 24.9498 91.4757 23.9274C92.9257 22.9056 94.9642 22.3941 97.5923 22.3941H100.905V20.7295C100.905 19.7368 100.616 18.9597 100.038 18.3983C99.46 17.8373 98.622 17.5566 97.5236 17.5566C96.5538 17.5566 95.7824 17.7879 95.209 18.2504C94.6366 18.7118 94.3507 19.3102 94.3507 20.0462L90.2507 20.0629L90.2319 19.9587C90.1496 18.4629 90.8184 17.1368 92.2382 15.9795C93.6574 14.8227 95.5069 14.2441 97.7861 14.2441C99.9944 14.2441 101.776 14.8056 103.132 15.9274C104.487 17.0498 105.165 18.6623 105.165 20.7649V29.1941C105.165 29.9774 105.217 30.729 105.321 31.4483C105.427 32.1665 105.596 32.8701 105.83 33.5587H101.519ZM96.3132 30.5087C97.3767 30.5087 98.3382 30.2399 99.1965 29.7024C100.055 29.1649 100.624 28.5519 100.905 27.8629V25.0587H97.5236C96.2845 25.0587 95.3142 25.366 94.6132 25.9795C93.9132 26.592 93.5632 27.3139 93.5632 28.1441C93.5632 28.8681 93.7991 29.4431 94.2715 29.8691C94.7449 30.2957 95.4257 30.5087 96.3132 30.5087Z" fill="#043570"/>
<path d="M113.47 14.5962L113.714 17.3295C114.333 16.3602 115.113 15.604 116.054 15.0608C116.995 14.5165 118.056 14.2441 119.235 14.2441C121.21 14.2441 122.75 14.8519 123.854 16.067C124.958 17.2826 125.51 19.1811 125.51 21.7629V33.5587H121.252V21.7983C121.252 20.3264 120.965 19.2806 120.391 18.6608C119.819 18.0415 118.954 17.7316 117.797 17.7316C116.886 17.7316 116.097 17.9045 115.431 18.2504C114.765 18.5951 114.234 19.0707 113.837 19.6774V33.5587H109.579V14.5962H113.47Z" fill="#043570"/>
<path d="M135.392 9.98577V14.5962H138.792V17.7504H135.392V28.2316C135.392 29.0139 135.561 29.5712 135.9 29.9045C136.239 30.2379 136.689 30.4045 137.25 30.4045C137.484 30.4045 137.711 30.3847 137.934 30.3441C138.156 30.3024 138.366 30.2462 138.565 30.1754L139.021 33.2962C138.659 33.4951 138.229 33.6493 137.732 33.7608C137.236 33.8717 136.719 33.9274 136.182 33.9274C134.615 33.9274 133.384 33.4691 132.49 32.5524C131.597 31.6347 131.15 30.1941 131.15 28.2316V17.7504H128.259V14.5962H131.15V9.98577H135.392Z" fill="#043570"/>
<path d="M151.672 18.4337L149.849 18.3629C149.02 18.3629 148.327 18.5389 147.772 18.8899C147.218 19.2399 146.789 19.7368 146.485 20.3795V33.5587H142.226V14.5962H146.116L146.397 17.3462C146.876 16.3769 147.492 15.6181 148.245 15.0691C148.999 14.5191 149.867 14.2441 150.849 14.2441C151.106 14.2441 151.346 14.2649 151.568 14.3066C151.79 14.3472 151.994 14.3962 152.181 14.4545L151.672 18.4337Z" fill="#043570"/>
<path d="M166.253 33.5587C166.1 33.0795 165.974 32.6123 165.874 32.1566C165.775 31.7014 165.709 31.2457 165.674 30.7899C165.102 31.6774 164.337 32.4227 163.378 33.0254C162.42 33.6264 161.351 33.9274 160.172 33.9274C158.197 33.9274 156.68 33.4191 155.622 32.4024C154.565 31.3858 154.037 29.9894 154.037 28.2129C154.037 26.3785 154.761 24.9498 156.21 23.9274C157.66 22.9056 159.698 22.3941 162.326 22.3941H165.639V20.7295C165.639 19.7368 165.35 18.9597 164.772 18.3983C164.194 17.8373 163.356 17.5566 162.257 17.5566C161.288 17.5566 160.516 17.7879 159.943 18.2504C159.37 18.7118 159.085 19.3102 159.085 20.0462L154.985 20.0629L154.966 19.9587C154.884 18.4629 155.552 17.1368 156.972 15.9795C158.391 14.8227 160.241 14.2441 162.52 14.2441C164.728 14.2441 166.51 14.8056 167.866 15.9274C169.221 17.0498 169.899 18.6623 169.899 20.7649V29.1941C169.899 29.9774 169.951 30.729 170.055 31.4483C170.161 32.1665 170.33 32.8701 170.564 33.5587H166.253ZM161.047 30.5087C162.111 30.5087 163.072 30.2399 163.93 29.7024C164.789 29.1649 165.358 28.5519 165.639 27.8629V25.0587H162.257C161.018 25.0587 160.048 25.366 159.347 25.9795C158.647 26.592 158.297 27.3139 158.297 28.1441C158.297 28.8681 158.533 29.4431 159.005 29.8691C159.479 30.2957 160.16 30.5087 161.047 30.5087Z" fill="#043570"/>
<path d="M193.429 25.217L193.464 25.3212C193.511 27.892 192.676 29.9691 190.958 31.5524C189.24 33.1358 186.92 33.9274 184 33.9274C181.031 33.9274 178.625 32.9254 176.779 30.9212C174.933 28.917 174.01 26.3556 174.01 23.2358V18.3816C174.01 15.2733 174.921 12.7118 176.743 10.6962C178.567 8.68108 180.944 7.67327 183.877 7.67327C186.879 7.67327 189.242 8.43889 190.966 9.9691C192.69 11.4998 193.528 13.5972 193.481 16.2608L193.447 16.3649H189.329C189.329 14.6597 188.867 13.354 187.943 12.4483C187.019 11.5431 185.664 11.0899 183.877 11.0899C182.147 11.0899 180.777 11.7769 179.766 13.1504C178.756 14.5227 178.252 16.2545 178.252 18.3462V23.2358C178.252 25.3514 178.765 27.0957 179.793 28.4691C180.821 29.8415 182.223 30.5274 184 30.5274C185.741 30.5274 187.065 30.0722 187.97 29.1608C188.876 28.2483 189.329 26.9337 189.329 25.217H193.429Z" fill="#00C0FF"/>
<path d="M208.552 33.5587C208.399 33.0795 208.272 32.6123 208.172 32.1566C208.074 31.7014 208.007 31.2457 207.972 30.7899C207.4 31.6774 206.635 32.4227 205.677 33.0254C204.718 33.6264 203.65 33.9274 202.47 33.9274C200.495 33.9274 198.979 33.4191 197.92 32.4024C196.863 31.3858 196.335 29.9894 196.335 28.2129C196.335 26.3785 197.059 24.9498 198.508 23.9274C199.958 22.9056 201.996 22.3941 204.625 22.3941H207.937V20.7295C207.937 19.7368 207.648 18.9597 207.07 18.3983C206.492 17.8373 205.654 17.5566 204.556 17.5566C203.586 17.5566 202.815 17.7879 202.241 18.2504C201.669 18.7118 201.383 19.3102 201.383 20.0462L197.283 20.0629L197.264 19.9587C197.182 18.4629 197.851 17.1368 199.27 15.9795C200.69 14.8227 202.539 14.2441 204.818 14.2441C207.027 14.2441 208.808 14.8056 210.164 15.9274C211.519 17.0498 212.197 18.6623 212.197 20.7649V29.1941C212.197 29.9774 212.25 30.729 212.354 31.4483C212.459 32.1665 212.629 32.8701 212.862 33.5587H208.552ZM203.345 30.5087C204.409 30.5087 205.37 30.2399 206.229 29.7024C207.087 29.1649 207.656 28.5519 207.937 27.8629V25.0587H204.556C203.317 25.0587 202.346 25.366 201.645 25.9795C200.945 26.592 200.595 27.3139 200.595 28.1441C200.595 28.8681 200.831 29.4431 201.304 29.8691C201.777 30.2957 202.458 30.5087 203.345 30.5087Z" fill="#00C0FF"/>
<path d="M226.092 18.4337L224.269 18.3629C223.44 18.3629 222.747 18.5389 222.192 18.8899C221.638 19.2399 221.209 19.7368 220.905 20.3795V33.5587H216.646V14.5962H220.536L220.817 17.3462C221.296 16.3769 221.912 15.6181 222.665 15.0691C223.419 14.5191 224.287 14.2441 225.269 14.2441C225.526 14.2441 225.766 14.2649 225.988 14.3066C226.21 14.3472 226.414 14.3962 226.601 14.4545L226.092 18.4337Z" fill="#00C0FF"/>
<path d="M237.29 33.9274C234.52 33.9274 232.356 33.054 230.796 31.3066C229.236 29.5597 228.457 27.2957 228.457 24.5149V23.8149C228.457 21.0332 229.236 18.7399 230.796 16.9358C232.356 15.1306 234.368 14.2332 236.834 14.2441C239.381 14.2441 241.309 15.0306 242.617 16.6024C243.926 18.1733 244.582 20.2733 244.582 22.9024V25.1983H232.857L232.821 25.2858C232.868 26.8399 233.277 28.1024 234.048 29.0733C234.819 30.0431 235.982 30.5274 237.536 30.5274C238.693 30.5274 239.695 30.3873 240.542 30.1066C241.389 29.8264 242.174 29.4227 242.898 28.8962L244.284 31.6837C243.559 32.3144 242.6 32.8462 241.409 33.2795C240.217 33.7113 238.844 33.9274 237.29 33.9274ZM236.834 17.6629C235.724 17.6629 234.836 18.0629 234.169 18.8629C233.503 19.6629 233.089 20.7061 232.925 21.992L232.961 22.0795H240.375V21.7462C240.375 20.5311 240.092 19.5472 239.525 18.7941C238.959 18.0399 238.061 17.6629 236.834 17.6629Z" fill="#00C0FF"/>
</svg>
